<svg viewBox="0 0 32 32"><path d="M 15.6875,2.34375 C 11.835642,2.3510876 7.8625825,2.375 4,2.375 1.0308887,2.37114 0.9894962,2.5354807 0.9375,5.375 0.930611,6.2863779 0.997696,6.9774697 1.15625,7.5 c -0.20402834,0.4383175 -0.22881769,1.1244771 -0.25,2.28125 -0.009185,1.21517 -0.002109,2.021469 0.375,2.5 -0.33685947,0.547968 -0.52631706,1.19043 -0.4375,1.84375 0.0272249,1.658946 -0.0449251,9.939429 0.0625,11.59375 C 1.152198,27.159962 2.5940429,28.056422 4,27.875 c 8.134434,-0.0083 16.272295,0.02917 24.40625,0 1.579864,0.01468 2.3891,-1.115624 2.4375,-2.5625 0.0444,-1.290676 0.0625,-10.865384 0.0625,-12.03125 -0.0036,-0.460972 -0.191921,-0.864955 -0.46875,-1.21875 0.456624,-0.525494 0.469356,-1.299333 0.46875,-2.28125 -0.0017,-1.0053836 -0.01762,-1.6757277 -0.3125,-2.125 0.393085,-0.5789683 0.297451,-1.3475233 0.296875,-2.28125 -0.0041,-2.4904938 0.0082,-2.9435745 -4.203125,-3 -3.425905,-0.029351 -7.148142,-0.038588 -11,-0.03125 z M 4,4.3125 c 7.961403,-0.0146 15.946031,-0.03073 23.875,0.09375 1.250747,0 1.387298,2.1597398 0.3125,2.46875 C 27.733354,6.8442676 27.213694,6.7895564 26.59375,6.78125 20.941923,6.7328295 14.44398,6.7687431 8,6.78125 6.6653222,6.7740552 5.3479623,6.75 4,6.75 2.8210564,6.75 2.9093764,4.3125 4,4.3125 z M 3.90625,8.75 c 0.034229,3.509e-4 0.058713,-9.47e-5 0.09375,0 7.930307,-0.014494 15.883416,-0.030241 23.78125,0.09375 1.179155,0 1.382787,1.726453 0.5,2.15625 -0.115929,-0.0032 -0.228523,-0.01188 -0.34375,0 -4.018462,-4.69e-4 -8.044037,-1.2e-4 -12.0625,0 -3.961956,-0.03867 -7.9353933,-0.0625 -11.96875,-0.0625 -1.1789436,0 -1.0906236,-2.1875 0,-2.1875 z M 28.5,12.84375 c 0.251962,0.108801 0.3125,0.294843 0.3125,0.65625 -0.02404,1.893432 0.05547,10.079837 -0.03125,11.96875 -0.194205,0.651887 -1.048141,0.334787 -1.5625,0.40625 L 3.5,25.875 C 2.6343603,25.94955 2.8296757,24.969124 2.8125,24.40625 2.834499,22.970835 2.759849,14.932107 2.84375,13.5 c 0,-0.33676 -0.018169,-0.518776 0.0625,-0.625 0.2876783,0.02452 0.6248125,0.06149 1,0.0625 8.249783,-0.0083 14.750696,-0.0021 23,-0.03125 0.636205,0 1.143776,-0.0073 1.59375,-0.0625 z"></path></svg>