<svg viewBox="0 0 32 32"><path d="M 28 10.2727 L 28 13.5455 C 28 13.7045 27.9495 13.7443 27.8486 13.8466 C 27.7476 13.9489 27.4647 14 27.3077 14 L 25.9231 14 C 25.7661 14 25.2524 13.9489 25.1514 13.8466 C 25.0505 13.7443 25 13.7045 25 13.5455 L 25 10.2727 C 25 10.1136 25.0505 10.2557 25.1514 10.1534 C 25.2524 10.0511 25.7661 10 25.9231 10 L 27.3077 10 C 27.4647 10 27.7476 10.0511 27.8486 10.1534 C 27.9495 10.2557 28 10.1136 28 10.2727 ZM 25.3077 16 L 27.3077 16 C 27.4647 16 27.7476 16.0511 27.8486 16.1534 C 27.9495 16.2557 28 16.6591 28 16.8182 L 28 25.0909 C 28 25.25 27.9495 25.7443 27.8486 25.8466 C 27.7476 25.9489 27.4647 26 27.3077 26 L 26 26 L 25.3077 26 C 25.1506 26 25.2524 25.9489 25.1514 25.8466 C 25.0505 25.7443 25 25.25 25 25.0909 L 25 16.8182 C 25 16.6591 25.0505 16.2557 25.1514 16.1534 C 25.2524 16.0511 25.1506 16 25.3077 16 ZM 28 5.7273 L 28 7 C 28 7.1591 27.9495 7.7443 27.8486 7.8466 C 27.7476 7.9489 27.4647 8 27.3077 8 L 25.9231 8 C 25.7661 8 25.2524 7.9489 25.1514 7.8466 C 25.0505 7.7443 25 7.1591 25 7 L 25 5.7273 C 25 5.5682 25.0505 5.2557 25.1514 5.1534 C 25.2524 5.0511 25.7661 5 25.9231 5 L 26 5 L 27.3077 5 C 27.4647 5 27.7476 5.0511 27.8486 5.1534 C 27.9495 5.2557 28 5.5682 28 5.7273 ZM 25.6923 28 L 26 28 L 27.3077 28 C 28.0481 28 28.6819 27.733 29.2091 27.1989 C 29.7364 26.6648 30 26.0227 30 25.2727 L 30 5.7273 C 30 4.9773 29.7364 4.3352 29.2091 3.8011 C 28.6819 3.267 28.0481 3 27.3077 3 L 26 3 L 25.6923 3 L 6.3077 3 L 6 3 L 4.6923 3 C 3.9519 3 3.3181 3.267 2.7909 3.8011 C 2.2636 4.3352 2 4.9773 2 5.7273 L 2 25.2727 C 2 26.0227 2.2636 26.6648 2.7909 27.1989 C 3.3181 27.733 3.9519 28 4.6923 28 L 6.3077 28 C 7.0481 28 7.6819 27.733 8.2091 27.1989 C 8.7364 26.6648 9 26.0227 9 25.2727 L 9 17 L 23 28 L 25.6923 28 ZM 23 16 L 23 25.2727 C 23 25.5276 23.0291 25.77 23.09 26 L 23 26 L 9 15 L 9 11 L 23 16 ZM 23 10 L 23 14 L 9 9 L 9 8 L 23 10 ZM 9 5.7273 C 9 5.4724 8.9709 5.23 8.91 5 L 23.09 5 C 23.0291 5.23 23 5.4724 23 5.7273 L 23 8 L 9 6 L 9 5.7273 ZM 7 20.7273 C 7 20.8864 6.9495 20.7443 6.8486 20.8466 C 6.7476 20.9489 6.4647 21 6.3077 21 L 4.9231 21 C 4.7661 21 4.2524 20.9489 4.1514 20.8466 C 4.0505 20.7443 4 20.8864 4 20.7273 L 4 17.4545 C 4 17.2955 4.0505 17.2557 4.1514 17.1534 C 4.2524 17.0511 4.7661 17 4.9231 17 L 6.3077 17 C 6.4647 17 6.7476 17.0511 6.8486 17.1534 C 6.9495 17.2557 7 17.2955 7 17.4545 L 7 20.7273 ZM 4.3077 15 C 4.1506 15 4.2524 14.9489 4.1514 14.8466 C 4.0505 14.7443 4 14.3409 4 14.1818 L 4 5.9091 C 4 5.75 4.0505 5.2557 4.1514 5.1534 C 4.2524 5.0511 4.1506 5 4.3077 5 L 6 5 L 6.3077 5 C 6.4647 5 6.7476 5.0511 6.8486 5.1534 C 6.9495 5.2557 7 5.75 7 5.9091 L 7 14.1818 C 7 14.3409 6.9495 14.7443 6.8486 14.8466 C 6.7476 14.9489 6.4647 15 6.3077 15 L 4.3077 15 ZM 7 25.2727 C 7 25.4318 6.9495 25.7443 6.8486 25.8466 C 6.7476 25.9489 6.4647 26 6.3077 26 L 4.9231 26 C 4.7661 26 4.2524 25.9489 4.1514 25.8466 C 4.0505 25.7443 4 25.4318 4 25.2727 L 4 24 C 4 23.8409 4.0505 23.2557 4.1514 23.1534 C 4.2524 23.0511 4.7661 23 4.9231 23 L 6.3077 23 C 6.4647 23 6.7476 23.0511 6.8486 23.1534 C 6.9495 23.2557 7 23.8409 7 24 L 7 25.2727 Z"></path></svg>