<svg viewBox="0 0 32 32"><path d="M 3.7273 22 L 28.2727 22 C 29.0227 22 29.6648 21.7364 30.1989 21.2091 C 30.733 20.6819 31 20.0481 31 19.3077 L 31 10.6923 C 31 9.9519 30.733 9.3181 30.1989 8.7909 C 29.6648 8.2636 29.0227 8 28.2727 8 L 3.7273 8 C 2.9773 8 2.3352 8.2636 1.8011 8.7909 C 1.267 9.3181 1 9.9519 1 10.6923 L 1 19.3077 C 1 20.0481 1.267 20.6819 1.8011 21.2091 C 2.3352 21.7364 2.9773 22 3.7273 22 ZM 28.2727 20 L 3.9091 20 C 3.75 20 3.2557 19.9495 3.1534 19.8486 C 3.0511 19.7476 3 19.4647 3 19.3077 L 3 10.3077 C 3 10.1506 3.0511 10.2524 3.1534 10.1514 C 3.2557 10.0505 3.75 10 3.9091 10 L 28.2727 10 C 28.4318 10 28.7443 10.0505 28.8466 10.1514 C 28.9489 10.2524 29 10.7661 29 10.9231 L 29 19.3077 C 29 19.4647 28.9489 19.7476 28.8466 19.8486 C 28.7443 19.9495 28.4318 20 28.2727 20 ZM 18 18 L 18 16.3438 L 18.7188 15.5781 L 21.0156 18 L 22.2813 18 L 19.4375 14.8906 L 22.2969 11.9844 L 21.0625 12 L 18 15.0625 L 18 12 L 17 12 L 17 18 L 18 18 ZM 9.3562 16.5313 C 9.5813 16.9844 9.9375 17.3438 10.4063 17.6094 C 10.875 17.875 11.4 18 12 18 C 12.5437 18 13.05 17.8906 13.5188 17.6406 C 13.9875 17.4063 14.3438 17.0625 14.6062 16.5938 C 14.8687 16.125 15 15.6094 15 15.0156 C 15 14.4375 14.8687 13.9219 14.625 13.4531 C 14.3813 13 14.025 12.6406 13.575 12.3906 C 13.1062 12.1406 12.5813 12 12 12 C 11.1 12 10.3875 12.2813 9.825 12.8281 C 9.2625 13.375 9 14.125 9 15.0781 C 9 15.5938 9.1125 16.0781 9.3562 16.5313 ZM 10.725 13.4844 C 11.0813 13.1719 11.5125 13 12 13 C 12.3375 13 12.6563 13.0938 12.9375 13.25 C 13.2188 13.4219 13.425 13.6563 13.575 13.9531 C 13.725 14.2656 13.8 14.6094 13.8 15 C 13.8 15.6406 13.6313 16.1406 13.2937 16.4844 C 12.9563 16.8281 12.525 17 12 17 C 11.475 17 11.0437 16.8281 10.7063 16.4844 C 10.3687 16.1406 10.2 15.6719 10.2 15.0781 C 10.2 14.3281 10.3687 13.7969 10.725 13.4844 Z"></path></svg>