<svg viewBox="0 0 32 32"><path d="M 3.7273 29 L 28.2727 29 C 29.0227 29 29.6648 28.7364 30.1989 28.2091 C 30.733 27.6819 31 27.0481 31 26.3077 L 31 19.6923 C 31 18.9519 30.733 18.3181 30.1989 17.7909 C 29.6648 17.2636 29.0227 17 28.2727 17 L 3.7273 17 C 2.9773 17 2.3352 17.2636 1.8011 17.7909 C 1.267 18.3181 1 18.9519 1 19.6923 L 1 26.3077 C 1 27.0481 1.267 27.6819 1.8011 28.2091 C 2.3352 28.7364 2.9773 29 3.7273 29 ZM 28.2727 27 L 3.9091 27 C 3.75 27 3.2557 26.9495 3.1534 26.8486 C 3.0511 26.7476 3 26.4647 3 26.3077 L 3 19.3077 C 3 19.1506 3.0511 19.2524 3.1534 19.1514 C 3.2557 19.0505 3.75 19 3.9091 19 L 28.2727 19 C 28.4318 19 28.7443 19.0505 28.8466 19.1514 C 28.9489 19.2524 29 19.7661 29 19.9231 L 29 26.3077 C 29 26.4647 28.9489 26.7476 28.8466 26.8486 C 28.7443 26.9495 28.4318 27 28.2727 27 ZM 5 20.125 L 5 21.2188 L 6 21.22 L 6 24.735 L 4.9688 24.7344 L 4.9688 25.8281 L 8.9688 25.8281 L 8.9688 24.7344 L 8 24.735 L 8 21.22 L 9 21.2188 L 9 20.125 L 5 20.125 ZM 1.0313 13.9688 L 28.2727 14 C 29.0227 14 29.6648 13.7364 30.1989 13.2091 C 30.733 12.6819 31 12.0481 31 11.3077 L 31 5.6923 C 31 4.9519 30.733 4.3181 30.1989 3.7909 C 29.6648 3.2636 29.0227 3 28.2727 3 L 3.7273 3 C 2.9773 3 2.3352 3.2636 1.8011 3.7909 C 1.267 4.3181 1 4.9519 1 5.6923 C 1 5.6923 1.0227 13.0313 1.0313 13.9688 ZM 19.7273 5 C 19.8864 5 19.7443 5.0505 19.8466 5.1514 C 19.9489 5.2524 20 5.7661 20 5.9231 L 20 11.3077 C 20 11.4647 19.9489 11.7476 19.8466 11.8486 C 19.7443 11.9495 19.8864 12 19.7273 12 L 3.9091 12 C 3.75 12 3.2557 11.9495 3.1534 11.8486 C 3.0511 11.7476 3 11.4647 3 11.3077 L 3 5.3077 C 3 5.1506 3.0511 5.2524 3.1534 5.1514 C 3.2557 5.0505 3.75 5 3.9091 5 L 19.7273 5 ZM 28.2727 12 L 23 12 C 22.8409 12 22.2557 11.9495 22.1534 11.8486 C 22.0511 11.7476 22 11.4647 22 11.3077 L 22 5.9231 C 22 5.7661 22.0511 5.2524 22.1534 5.1514 C 22.2557 5.0505 22.8409 5 23 5 L 28.2727 5 C 28.4318 5 28.7443 5.0505 28.8466 5.1514 C 28.9489 5.2524 29 5.7661 29 5.9231 L 29 11.3077 C 29 11.4647 28.9489 11.7476 28.8466 11.8486 C 28.7443 11.9495 28.4318 12 28.2727 12 ZM 22.9688 7.0313 C 22.9531 7.0938 25.4375 10.125 25.4375 10.125 L 27.9375 7.0156 C 27.9375 7.0156 22.9844 6.9688 22.9688 7.0313 Z"></path></svg>