<svg viewBox="0 0 32 32"><path d="M 25.7273 27 L 26 27 L 26 29 L 28 29 L 28 27 L 28.2727 27 C 29.0227 27 29.6648 26.7364 30.1989 26.2091 C 30.733 25.6819 31 25.0481 31 24.3077 L 31 9.6923 C 31 8.9519 30.733 8.3181 30.1989 7.7909 C 29.6648 7.2636 29.0227 7 28.2727 7 L 28 7 L 28 2 L 26 2 L 26 7 L 25.7273 7 C 24.9773 7 24.3352 7.2636 23.8011 7.7909 C 23.267 8.3181 23 8.9519 23 9.6923 L 23 24.3077 C 23 25.0481 23.267 25.6819 23.8011 26.2091 C 24.3352 26.7364 24.9773 27 25.7273 27 ZM 28.2727 25 L 25.9091 25 C 25.75 25 25.2557 24.9495 25.1534 24.8486 C 25.0511 24.7476 25 24.4647 25 24.3077 L 25 9.3077 C 25 9.1506 25.0511 9.2524 25.1534 9.1514 C 25.2557 9.0505 25.75 9 25.9091 9 L 28.2727 9 C 28.4318 9 28.7443 9.0505 28.8466 9.1514 C 28.9489 9.2524 29 9.7661 29 9.9231 L 29 24.3077 C 29 24.4647 28.9489 24.7476 28.8466 24.8486 C 28.7443 24.9495 28.4318 25 28.2727 25 ZM 14.7273 27 L 15 27 L 15 30 L 17 30 L 17 27 L 17.2727 27 C 18.0227 27 18.6648 26.7364 19.1989 26.2091 C 19.733 25.6819 20 25.0481 20 24.3077 L 20 19.6923 C 20 18.9519 19.733 18.3181 19.1989 17.7909 C 18.6648 17.2636 18.0227 17 17.2727 17 L 17 17 L 17 12 L 15 12 L 15 17 L 14.7273 17 C 13.9773 17 13.3352 17.2636 12.8011 17.7909 C 12.267 18.3181 12 18.9519 12 19.6923 L 12 24.3077 C 12 25.0481 12.267 25.6819 12.8011 26.2091 C 13.3352 26.7364 13.9773 27 14.7273 27 ZM 17.2727 25 L 14.9091 25 C 14.75 25 14.2557 24.9495 14.1534 24.8486 C 14.0511 24.7476 14 24.4647 14 24.3077 L 14 19.3077 C 14 19.1506 14.0511 19.2524 14.1534 19.1514 C 14.2557 19.0505 14.75 19 14.9091 19 L 17.2727 19 C 17.4318 19 17.7443 19.0505 17.8466 19.1514 C 17.9489 19.2524 18 19.7661 18 19.9231 L 18 24.3077 C 18 24.4647 17.9489 24.7476 17.8466 24.8486 C 17.7443 24.9495 17.4318 25 17.2727 25 ZM 3.7273 20 L 4 20 L 4 29 L 6 29 L 6 20 L 6.2727 20 C 7.0227 20 7.6648 19.7364 8.1989 19.2091 C 8.733 18.6819 9 18.0481 9 17.3077 L 9 13.6923 C 9 12.9519 8.733 12.3181 8.1989 11.7909 C 7.6648 11.2636 7.0227 11 6.2727 11 L 6 11 L 6 9 L 4 9 L 4 11 L 3.7273 11 C 2.9773 11 2.3352 11.2636 1.8011 11.7909 C 1.267 12.3181 1 12.9519 1 13.6923 L 1 17.3077 C 1 18.0481 1.267 18.6819 1.8011 19.2091 C 2.3352 19.7364 2.9773 20 3.7273 20 ZM 6.2727 18 L 3.9091 18 C 3.75 18 3.2557 17.9495 3.1534 17.8486 C 3.0511 17.7476 3 17.4647 3 17.3077 L 3 13.3077 C 3 13.1506 3.0511 13.2524 3.1534 13.1514 C 3.2557 13.0505 3.75 13 3.9091 13 L 6.2727 13 C 6.4318 13 6.7443 13.0505 6.8466 13.1514 C 6.9489 13.2524 7 13.7661 7 13.9231 L 7 17.3077 C 7 17.4647 6.9489 17.7476 6.8466 17.8486 C 6.7443 17.9495 6.4318 18 6.2727 18 Z"></path></svg>