<svg viewBox="0 0 32 32"><path d="M 22 6.6666 C 22 5.1024 21.4141 3.7669 20.2422 2.6602 C 19.0703 1.5534 17.6562 1 16 1 C 14.3438 1 12.9297 1.5534 11.7578 2.6602 C 10.5859 3.7669 10 5.1024 10 6.6666 C 10 7.4709 10.1289 8.1313 10.3867 8.6478 L 14.6641 17.2142 C 14.7813 17.4577 14.9629 17.6496 15.209 17.7897 C 15.4551 17.9299 15.7188 18 16 18 C 16.2813 18 16.5449 17.9299 16.791 17.7897 C 17.0371 17.6496 17.2226 17.4577 17.3477 17.2142 L 21.6133 8.6478 C 21.8711 8.1313 22 7.4709 22 6.6666 ZM 19 6.6666 C 19 7.4488 18.707 8.1166 18.1211 8.6699 C 17.5352 9.2233 16.8281 9.5 16 9.5 C 15.1719 9.5 14.4648 9.2233 13.8789 8.6699 C 13.293 8.1166 13 7.4488 13 6.6666 C 13 5.8846 13.293 5.2168 13.8789 4.6634 C 14.4648 4.11 15.1719 3.8334 16 3.8334 C 16.8281 3.8334 17.5352 4.11 18.1211 4.6634 C 18.707 5.2168 19 5.8846 19 6.6666 ZM 27 12 L 22.3086 12 L 21.2871 14 L 25.5586 14 L 26.7168 20.4766 L 26.0273 21.2383 C 26.7617 21.9024 26.8106 22.5605 26.8125 22.5625 L 27.0234 22.4356 L 28.2246 28 L 3.7734 28 L 5.0625 22.125 C 5.1328 22.1738 5.1875 22.2207 5.2656 22.2696 L 6.043 20.4473 C 5.8047 20.2969 5.6094 20.1484 5.4375 20.0098 L 6.4414 14 L 10.7149 14 L 9.6934 12 L 5 12 L 1 30 L 31 30 L 27 12 ZM 15.4727 19.4629 C 15.2481 19.6035 15.0274 19.7324 14.8106 19.8535 L 15.7832 21.5996 C 16.0274 21.4629 16.2774 21.3184 16.5274 21.1621 C 16.8711 20.9492 17.2071 20.7598 17.5371 20.5918 L 16.6289 18.8106 C 16.2539 19.0019 15.8672 19.2188 15.4727 19.4629 ZM 18.6836 17.959 L 19.2813 19.8652 C 19.8926 19.6738 20.4962 19.5527 21.0782 19.5059 L 20.918 17.5137 C 20.1875 17.5723 19.4356 17.7227 18.6836 17.959 ZM 22.8555 19.5996 C 23.4317 19.7129 23.9942 19.9102 24.5274 20.1856 L 25.4454 18.4082 C 24.7422 18.0469 24.002 17.7871 23.2422 17.6386 L 22.8555 19.5996 ZM 7.1074 23.0899 C 7.8399 23.3008 8.6114 23.4141 9.4004 23.4258 L 9.4317 21.4258 C 8.8184 21.4161 8.2227 21.3301 7.6602 21.168 L 7.1074 23.0899 ZM 13.0586 20.6934 C 12.4492 20.9356 11.8438 21.1211 11.2579 21.2442 L 11.6661 23.2012 C 12.3652 23.0547 13.0821 22.836 13.8008 22.5489 L 13.0586 20.6934 Z"></path></svg>