<svg viewBox="0 0 32 32"><path d="M 27 13.1546 C 27 13.2938 26.9531 13.408 26.8594 13.4974 C 26.7656 13.5869 26.6458 13.6316 26.5 13.6316 L 21.5 13.6316 C 21.3541 13.6316 21.2344 13.5869 21.1406 13.4974 C 21.0469 13.408 21 13.2938 21 13.1546 L 21 10.2928 C 21 10.1537 21.0469 10.0394 21.1406 9.9499 C 21.2344 9.8605 21.3541 9.8158 21.5 9.8158 L 26.5 9.8158 C 26.6458 9.8158 26.7656 9.8605 26.8594 9.9499 C 26.9531 10.0394 27 10.1537 27 10.2928 L 27 13.1546 ZM 27 18.8783 C 27 19.0174 26.9531 19.1317 26.8594 19.2211 C 26.7656 19.3106 26.6458 19.3553 26.5 19.3553 L 21.5 19.3553 C 21.3541 19.3553 21.2344 19.3106 21.1406 19.2211 C 21.0469 19.1317 21 19.0174 21 18.8783 L 21 16.0165 C 21 15.8774 21.0469 15.7631 21.1406 15.6736 C 21.2344 15.5842 21.3541 15.5395 21.5 15.5395 L 26.5 15.5395 C 26.6458 15.5395 26.7656 15.5842 26.8594 15.6736 C 26.9531 15.7631 27 15.8774 27 16.0165 L 27 18.8783 ZM 19 13.1546 C 19 13.2938 18.9531 13.408 18.8594 13.4974 C 18.7656 13.5869 18.6458 13.6316 18.5 13.6316 L 13.5 13.6316 C 13.3542 13.6316 13.2344 13.5869 13.1406 13.4974 C 13.0469 13.408 13 13.2938 13 13.1546 L 13 10.2928 C 13 10.1537 13.0469 10.0394 13.1406 9.9499 C 13.2344 9.8605 13.3542 9.8158 13.5 9.8158 L 18.5 9.8158 C 18.6458 9.8158 18.7656 9.8605 18.8594 9.9499 C 18.9531 10.0394 19 10.1537 19 10.2928 L 19 13.1546 ZM 27 24.602 C 27 24.7411 26.9531 24.8554 26.8594 24.9448 C 26.7656 25.0343 26.6458 25.079 26.5 25.079 L 21.5 25.079 C 21.3541 25.079 21.2344 25.0343 21.1406 24.9448 C 21.0469 24.8554 21 24.7411 21 24.602 L 21 21.7402 C 21 21.6011 21.0469 21.4868 21.1406 21.3973 C 21.2344 21.3079 21.3541 21.2632 21.5 21.2632 L 26.5 21.2632 C 26.6458 21.2632 26.7656 21.3079 26.8594 21.3973 C 26.9531 21.4868 27 21.6011 27 21.7402 L 27 24.602 ZM 19 18.8783 C 19 19.0174 18.9531 19.1317 18.8594 19.2211 C 18.7656 19.3106 18.6458 19.3553 18.5 19.3553 L 13.5 19.3553 C 13.3542 19.3553 13.2344 19.3106 13.1406 19.2211 C 13.0469 19.1317 13 19.0174 13 18.8783 L 13 16.0165 C 13 15.8774 13.0469 15.7631 13.1406 15.6736 C 13.2344 15.5842 13.3542 15.5395 13.5 15.5395 L 18.5 15.5395 C 18.6458 15.5395 18.7656 15.5842 18.8594 15.6736 C 18.9531 15.7631 19 15.8774 19 16.0165 L 19 18.8783 ZM 11 13.1546 C 11 13.2938 10.9531 13.408 10.8594 13.4974 C 10.7656 13.5869 10.6459 13.6316 10.5 13.6316 L 5.5 13.6316 C 5.3542 13.6316 5.2344 13.5869 5.1406 13.4974 C 5.0469 13.408 5 13.2938 5 13.1546 L 5 10.2928 C 5 10.1537 5.0469 10.0394 5.1406 9.9499 C 5.2344 9.8605 5.3542 9.8158 5.5 9.8158 L 10.5 9.8158 C 10.6459 9.8158 10.7656 9.8605 10.8594 9.9499 C 10.9531 10.0394 11 10.1537 11 10.2928 L 11 13.1546 ZM 19.0625 26.9531 L 26.5 26.9869 C 27.1875 26.9869 27.776 26.7534 28.2656 26.2863 C 28.7552 25.8193 29 25.2579 29 24.602 L 29 8.3849 C 29 7.729 28.7552 7.1676 28.2656 6.7006 C 27.776 6.2335 27.1875 6 26.5 6 L 5.5 6 C 4.8125 6 4.224 6.2335 3.7344 6.7006 C 3.2448 7.1676 3 7.729 3 8.3849 L 3 15.5884 L 10.5292 15.5884 C 10.9083 15.6409 11 15.8774 11 16.0165 L 10.9896 19.248 L 11.0313 21.4531 L 19.0313 21.4531 L 19.0625 26.9531 Z"></path></svg>