<svg viewBox="0 0 512.000000 512.000000"><g transform="translate(0.000000,0.000000) scale(0.100000,0.100000)" ><path id="path6" d="M337 4782 c-15 -17 -17 -73 -17 -600 l0 -581 22 -15 c20 -14 93 -16 591 -16 l568 0 24 25 25 24 0 568 c0 498 -2 571 -16 591 l-15 22 -583 0 c-552 0 -584 -1 -599 -18z"></path><path id="path8" d="M1986 4778 c-14 -20 -16 -93 -16 -591 l0 -568 25 -24 24 -25 571 0 c557 0 570 0 590 20 20 20 20 33 20 598 0 548 -1 580 -18 595 -17 15 -73 17 -600 17 l-581 0 -15 -22z"></path><path id="path12" d="m 3605.0455,3168 c -11,-6 -23,-16 -27,-22 -4,-6 -8,-271 -8,-588 0,-636 -4,-601 63,-613 18,-3 279,-5 580,-3 l 549,3 19,24 c 18,22 19,47 19,591 0,544 -1,569 -19,591 l -19,24 -569,2"></path><path id="path16" d="m 3613,1540.8148 c -12,-5 -26,-18 -32,-29 -8,-13 -11,-204 -11,-583.99999 0,-541 1,-566 19,-588 l 19,-24 549,-3 c 301,-2 562,0 580,3 67,12 63,-23 63,613 0,316.99999 -4,581.99999 -8,587.99999 -21,32 -51,34 -604,33 -304,0 -563,-4 -575,-9 z"></path><path id="path20" d="M1964 1525 l-24 -25 2 -576 c3 -557 4 -576 22 -590 17 -12 114 -14 597 -14 512 0 579 2 593 16 9 8 16 21 16 27 0 7 0 268 0 582 0 567 0 570 -21 588 -20 16 -63 17 -591 17 l-569 0 -25 -25z"></path><path id="path22" d="m 3595,4775 -25,-24 0,-568 c 0,-498 2,-571 16,-591 l 15,-22 583,0 c 552,0 584,1 599,18 15,17 17,73 17,595 0,564 0,577 -20,597 -20,20 -33,20 -590,20 l -571,0 -24,-25 z m 1095,-590 0,-505 -505,0 -505,0 0,505 0,505 505,0 505,0 0,-505 z"></path><path id="path16-0" d="m 363,3167.8148 c -12,-5 -26,-18 -32,-29 -8,-13 -11,-203.9999 -11,-583.9999 0,-541 1,-566 19,-588 l 19,-24 549,-3 c 301,-2 562,0 580,3 67,12 63,-23 63,613 0,317 -4,581.9999 -8,587.9999 -21,32 -51,34 -604,33 -304,0 -563,-4 -575,-9 z"></path><path id="path22-6" d="m 1965,3152 -25,-24 0,-568 c 0,-498 2,-571 16,-591 l 15,-22 583,0 c 552,0 584,1 599,18 15,17 17,73 17,595 0,564 0,577 -20,597 -20,20 -33,20 -590,20 l -571,0 -24,-25 z m 1095,-590 0,-505 -505,0 -505,0 0,505 0,505 505,0 505,0 0,-505 z"></path><path id="path22-6-3" d="m 345,1525 -25,-24 0,-568 c 0,-498 2,-571 16,-591 l 15,-22 583,0 c 552,0 584,1 599,18 15,17 17,73 17,595 0,564 0,577 -20,597 -20,20 -33,20 -590,20 l -571,0 -24,-25 z m 1095,-590 0,-505 -505,0 -505,0 0,505 0,505 505,0 505,0 0,-505 z"></path></g></svg>