<svg viewBox="0 0 32 32"><path d="M 13 10 L 13 6.9091 L 13 6.3523 C 13 6.3523 12.7364 5.3352 12.2091 4.8011 L 12 4.61 C 11.5168 4.2047 10.9527 4 10.3077 4 L 3.6923 4 C 2.9519 4 2.3181 4.267 1.7909 4.8011 C 1.2636 5.3352 1 5.9773 1 6.7273 L 1 24.2727 C 1 25.0227 1.2636 25.6648 1.7909 26.1989 C 2.3181 26.733 2.9519 27 3.6923 27 L 28.3077 27 C 29.0481 27 29.6819 26.733 30.2091 26.1989 C 30.7364 25.6648 31 25.0227 31 24.2727 L 31 10 L 31 6.3523 C 31 6.3523 30.7364 5.3352 30.2091 4.8011 C 29.6819 4.267 29.0481 4 28.3077 4 L 22.6923 4 C 22.0473 4 21.4832 4.2047 21 4.61 L 21.2091 4.8011 C 21.7364 5.3352 22 6.3523 22 6.3523 L 22 6.9091 C 22 6.75 22.0505 6.2557 22.1514 6.1534 C 22.2524 6.0511 22.5353 6 22.6923 6 L 28.0769 6 C 28.234 6 28.7476 6.0511 28.8486 6.1534 C 28.9495 6.2557 29 6.75 29 6.9091 L 29 9.9063 C 29 9.9394 28.6951 9.9709 28.215 10 L 22 10 L 22 6.9091 L 22 6.3523 C 22 6.3523 21.7364 5.3352 21.2091 4.8011 L 21 4.61 C 20.5168 4.2047 19.9527 4 19.3077 4 L 13.6923 4 C 13.0473 4 12.4832 4.2047 12 4.61 L 12.2091 4.8011 C 12.7364 5.3352 13 6.3523 13 6.3523 L 13 6.9091 C 13 6.75 13.0505 6.2557 13.1514 6.1534 C 13.2524 6.0511 13.5353 6 13.6923 6 L 19.0769 6 C 19.234 6 19.7476 6.0511 19.8486 6.1534 C 19.9495 6.2557 20 6.75 20 6.9091 L 20 9.9063 C 20 9.9394 19.6951 9.9709 19.215 10 L 13 10 ZM 3.6923 25 C 3.5353 25 3.2524 24.9489 3.1514 24.8466 C 3.0505 24.7443 3 24.4318 3 24.2727 L 3 6.9091 C 3 6.75 3.0505 6.2557 3.1514 6.1534 C 3.2524 6.0511 3.5353 6 3.6923 6 L 10.0769 6 C 10.234 6 10.7476 6.0511 10.8486 6.1534 C 10.9495 6.2557 11 6.75 11 6.9091 L 11 11.9063 L 11 12 L 11.335 11.94 C 12.4606 11.9869 16.2484 11.9818 20 11.965 L 20 12 L 20.195 11.965 C 24.5005 11.9452 28.6983 11.9091 28.6983 11.9091 C 28.8554 11.9091 28.7476 11.9602 28.8486 12.0625 C 28.9495 12.1648 29 12.2955 29 12.4545 L 29 24.2727 C 29 24.4318 28.9495 24.7443 28.8486 24.8466 C 28.7476 24.9489 28.4647 25 28.3077 25 L 3.6923 25 Z"></path></svg>