<svg viewBox="0 0 32 32"><path d="M 3.7273 22 L 28.2727 22 C 29.0227 22 29.6648 21.7364 30.1989 21.2091 C 30.733 20.6819 31 20.0481 31 19.3077 L 31 10.6923 C 31 9.9519 30.733 9.3181 30.1989 8.7909 C 29.6648 8.2636 29.0227 8 28.2727 8 L 3.7273 8 C 2.9773 8 2.3352 8.2636 1.8011 8.7909 C 1.267 9.3181 1 9.9519 1 10.6923 L 1 19.3077 C 1 20.0481 1.267 20.6819 1.8011 21.2091 C 2.3352 21.7364 2.9773 22 3.7273 22 ZM 28.2727 20 L 3.9091 20 C 3.75 20 3.2557 19.9495 3.1534 19.8486 C 3.0511 19.7476 3 19.4647 3 19.3077 L 3 10.3077 C 3 10.1506 3.0511 10.2524 3.1534 10.1514 C 3.2557 10.0505 3.75 10 3.9091 10 L 28.2727 10 C 28.4318 10 28.7443 10.0505 28.8466 10.1514 C 28.9489 10.2524 29 10.7661 29 10.9231 L 29 19.3077 C 29 19.4647 28.9489 19.7476 28.8466 19.8486 C 28.7443 19.9495 28.4318 20 28.2727 20 ZM 5 11.125 L 5 12.2188 L 6 12.22 L 6 17.735 L 4.9688 17.7344 L 4.9688 18.8281 L 8.9688 18.8281 L 8.9688 17.7344 L 8 17.735 L 8 12.22 L 9 12.2188 L 9 11.125 L 5 11.125 Z"></path></svg>