<svg viewBox="0 0 28 32"><path d="M 0.582031 0.0429688 C 0.375 0.09375 0.203125 0.230469 0.105469 0.433594 L 0.03125 0.578125 L 0.03125 7.824219 L 0.0898438 7.941406 C 0.171875 8.117188 0.269531 8.214844 0.4375 8.296875 L 0.582031 8.371094 L 5.613281 8.378906 L 5.613281 18.09375 C 5.613281 25.011719 5.621094 27.839844 5.636719 27.933594 C 5.652344 28.003906 5.679688 28.097656 5.703125 28.140625 C 5.757812 28.25 5.90625 28.390625 6.027344 28.449219 L 6.128906 28.5 L 10.769531 28.507812 L 15.40625 28.511719 L 15.414062 29.996094 C 15.417969 31.464844 15.417969 31.476562 15.46875 31.578125 C 15.527344 31.710938 15.675781 31.859375 15.816406 31.929688 L 15.925781 31.980469 L 27.484375 31.980469 L 27.597656 31.921875 C 27.75 31.839844 27.859375 31.726562 27.933594 31.578125 L 27.988281 31.457031 L 27.988281 24.167969 L 27.9375 24.066406 C 27.863281 23.917969 27.753906 23.804688 27.625 23.730469 L 27.503906 23.664062 L 21.730469 23.660156 L 15.953125 23.652344 L 15.824219 23.714844 C 15.660156 23.785156 15.515625 23.9375 15.453125 24.105469 C 15.410156 24.222656 15.410156 24.265625 15.410156 25.667969 L 15.410156 27.113281 L 7.023438 27.113281 L 7.023438 16.71875 L 15.410156 16.71875 L 15.410156 18.160156 C 15.410156 19.566406 15.410156 19.609375 15.453125 19.722656 C 15.515625 19.890625 15.660156 20.042969 15.824219 20.117188 L 15.953125 20.175781 L 21.730469 20.171875 L 27.503906 20.164062 L 27.625 20.097656 C 27.753906 20.027344 27.863281 19.910156 27.9375 19.761719 L 27.988281 19.660156 L 27.988281 12.375 L 27.933594 12.25 C 27.859375 12.101562 27.75 11.988281 27.597656 11.90625 L 27.484375 11.847656 L 15.925781 11.847656 L 15.824219 11.898438 C 15.691406 11.957031 15.527344 12.117188 15.46875 12.25 C 15.417969 12.351562 15.417969 12.367188 15.414062 13.835938 L 15.40625 15.316406 L 11.21875 15.3125 L 7.03125 15.304688 L 7.027344 11.84375 L 7.023438 8.378906 L 9.550781 8.375 L 12.074219 8.371094 L 12.222656 8.296875 C 12.371094 8.226562 12.476562 8.121094 12.558594 7.964844 C 12.601562 7.890625 12.601562 7.765625 12.601562 4.203125 L 12.601562 0.515625 L 12.539062 0.398438 C 12.460938 0.257812 12.359375 0.164062 12.195312 0.0898438 L 12.074219 0.03125 L 6.363281 0.0273438 C 3.21875 0.0273438 0.621094 0.03125 0.582031 0.0429688 Z M 11.203125 4.203125 L 11.203125 6.980469 L 1.453125 6.980469 L 1.453125 1.421875 L 11.203125 1.421875 Z M 26.589844 16.007812 L 26.589844 18.773438 L 16.816406 18.773438 L 16.816406 13.238281 L 26.589844 13.238281 Z M 26.589844 27.824219 L 26.589844 30.589844 L 16.816406 30.589844 L 16.816406 25.054688 L 26.589844 25.054688 Z M 26.589844 27.824219 "></path></svg>