<svg viewBox="0 0 32 32"><path d="M 30 5.7273 C 30 4.9773 29.7364 4.3352 29.2091 3.8011 C 28.6819 3.267 28.0481 3 27.3077 3 L 4.6923 3 C 3.9519 3 3.3181 3.267 2.7909 3.8011 C 2.2636 4.3352 2 4.9773 2 5.7273 L 2 25.2727 C 2 26.0227 2.2636 26.6648 2.7909 27.1989 C 3.3181 27.733 3.9519 28 4.6923 28 L 27.3077 28 C 28.0481 28 28.6819 27.733 29.2091 27.1989 C 29.7364 26.6648 30 26.0227 30 25.2727 L 30 5.7273 ZM 28 20.7273 C 28 20.8864 27.9495 20.7443 27.8486 20.8466 C 27.7476 20.9489 27.4647 21 27.3077 21 L 23.9231 21 C 23.7661 21 23.2524 20.9489 23.1514 20.8466 C 23.0505 20.7443 23 20.8864 23 20.7273 L 23 17.4545 C 23 17.2955 23.0505 17.2557 23.1514 17.1534 C 23.2524 17.0511 23.7661 17 23.9231 17 L 27.3077 17 C 27.4647 17 27.7476 17.0511 27.8486 17.1534 C 27.9495 17.2557 28 17.2955 28 17.4545 L 28 20.7273 ZM 17.3077 15 C 17.1506 15 17.2524 14.9489 17.1514 14.8466 C 17.0505 14.7443 17 14.3409 17 14.1818 L 17 5.9091 C 17 5.75 17.0505 5.2557 17.1514 5.1534 C 17.2524 5.0511 17.1506 5 17.3077 5 L 27.3077 5 C 27.4647 5 27.7476 5.0511 27.8486 5.1534 C 27.9495 5.2557 28 5.75 28 5.9091 L 28 14.1818 C 28 14.3409 27.9495 14.7443 27.8486 14.8466 C 27.7476 14.9489 27.4647 15 27.3077 15 L 17.3077 15 ZM 28 25.2727 C 28 25.4318 27.9495 25.7443 27.8486 25.8466 C 27.7476 25.9489 27.4647 26 27.3077 26 L 23.9231 26 C 23.7661 26 23.2524 25.9489 23.1514 25.8466 C 23.0505 25.7443 23 25.4318 23 25.2727 L 23 24 C 23 23.8409 23.0505 23.2557 23.1514 23.1534 C 23.2524 23.0511 23.7661 23 23.9231 23 L 27.3077 23 C 27.4647 23 27.7476 23.0511 27.8486 23.1534 C 27.9495 23.2557 28 23.8409 28 24 L 28 25.2727 ZM 21 25.2727 C 21 25.4318 20.9495 25.7443 20.8486 25.8466 C 20.7476 25.9489 20.8494 26 20.6923 26 L 17.3077 26 C 17.1506 26 17.2524 25.9489 17.1514 25.8466 C 17.0505 25.7443 17 25.4318 17 25.2727 L 17 17.4545 C 17 17.2955 17.0505 17.2557 17.1514 17.1534 C 17.2524 17.0511 17.1506 17 17.3077 17 L 20.6923 17 C 20.8494 17 20.7476 17.0511 20.8486 17.1534 C 20.9495 17.2557 21 17.2955 21 17.4545 L 21 25.2727 ZM 15 25.2727 C 15 25.4318 14.9495 25.7443 14.8486 25.8466 C 14.7476 25.9489 14.2339 26 14.0769 26 L 4.6923 26 C 4.5353 26 4.2524 25.9489 4.1514 25.8466 C 4.0505 25.7443 4 25.4318 4 25.2727 L 4 5.9091 C 4 5.75 4.0505 5.2557 4.1514 5.1534 C 4.2524 5.0511 4.5353 5 4.6923 5 L 14.0769 5 C 14.2339 5 14.7476 5.0511 14.8486 5.1534 C 14.9495 5.2557 15 5.75 15 5.9091 L 15 25.2727 Z"></path></svg>