<svg viewBox="0 0 32 32"><g transform="matrix(0.00370099,0,0,-0.00370099,2,32)"><path d="m 197,6653 c -4,-7 2029,-5273 2047,-5301 5,-9 228,-12 876,-12 l 870,0 13,23 c 8,12 423,1078 922,2369 500,1292 910,2346 912,2344 2,-2 -312,-919 -697,-2039 l -700,-2035 0,-331 0,-331 1520,0 1520,0 0,780 0,780 -720,0 -720,0 2,1880 3,1880 -861,0 c -677,0 -864,-3 -872,-12 -5,-7 -454,-1162 -997,-2566 -544,-1403 -989,-2551 -991,-2550 -1,2 146,548 327,1213 l 328,1210 -522,1350 -523,1350 -866,3 c -477,1 -869,-1 -871,-5 z"></path></g></svg>